<?xml version="1.0" encoding="iso-8859-1"?>
<!-- Generator: Adobe Illustrator 19.0.0, SVG Export Plug-In . SVG Version: 6.00 Build 0)  -->
<svg xmlns="http://www.w3.org/2000/svg" xmlns:xlink="http://www.w3.org/1999/xlink" version="1.1" id="Capa_1" x="0px" y="0px" viewBox="0 0 490 490" style="enable-background:new 0 0 490 490;" xml:space="preserve" width="512px" height="512px">
<g>
	<path d="M424,49.8H312.8C303.5,20.9,276.5,0,244.5,0s-59,20.9-68.3,49.8H66c-23.2,0-42,18.8-42,42V448c0,23.2,18.8,42,42,42h358   c23.2,0,42-18.8,42-42V91.8C466,68.6,447.2,49.8,424,49.8z M244.5,46.7c13.8,0,25,11.2,25,25s-11.2,25-25,25c-13.8,0-25-11.2-25-25   S230.7,46.7,244.5,46.7z M369.2,407.3c0,7.7-6.3,14-14,14h-93.8h-32.6H135c-7.7,0-14-6.3-14-14v-6.5c0-17.1,8-33.3,21.7-43.5   c27.6-20.4,54-33.8,60-36.7c0.8-0.4,1.3-1.2,1.3-2v-24.1c-3.7-6.4-6.1-13.2-7.1-19.3c-2.7-0.2-6.3-4-10.1-17.5   c-5.2-18.5,0.3-21.2,5-20.8c-0.9-2.6-1.6-5.1-2-7.6l0,0c-1.7-8.6-2.1-16.7-0.1-24.4c2.4-10.3,8-18.6,14.2-24.9   c3.9-4.2,8.4-7.9,13.2-10.9c3.9-2.7,8.1-5,12.8-6.6l0,0c3.6-1.2,7.5-2,11.6-2.2c12.7-1.1,22.3,2.1,29.2,6.2   c10.3,5.7,14.2,13.2,14.2,13.2s23.6,1.7,15.6,49.6c-0.5,2.5-1.1,5.1-2,7.6c4.7-0.4,10.3,2.3,5,20.8c-3.8,13.5-7.4,17.3-10.1,17.5   c-0.9,6.1-3.3,12.7-7.1,19.1v24.3c0,0.9,0.5,1.7,1.3,2c6,2.9,32.4,16.3,60,36.7c13.7,10.2,21.7,26.4,21.7,43.5v6.5H369.2z" fill="#FFFFFF"/>
</g>
<g>
</g>
<g>
</g>
<g>
</g>
<g>
</g>
<g>
</g>
<g>
</g>
<g>
</g>
<g>
</g>
<g>
</g>
<g>
</g>
<g>
</g>
<g>
</g>
<g>
</g>
<g>
</g>
<g>
</g>
</svg>
